<svg width="100" height="58" viewBox="0 0 100 58" fill="none" xmlns="http://www.w3.org/2000/svg">
<path d="M59.0341 46.9091H68.1364L77.75 23.4545H78.1591L87.7727 46.9091H96.875V12H89.7159V34.7216H89.4261L80.392 12.1705H75.517L66.483 34.8068H66.1932V12H59.0341V46.9091Z" fill="white"/>
<path d="M3.03409 12V46.9091H16.8068C19.4432 46.9091 21.6932 46.4375 23.5568 45.4943C25.4318 44.5625 26.858 43.2386 27.8352 41.5227C28.8239 39.8182 29.3182 37.8125 29.3182 35.5057C29.3182 33.1875 28.8182 31.1932 27.8182 29.5227C26.8182 27.8636 25.3693 26.5909 23.4716 25.7045C21.5852 24.8182 19.3011 24.375 16.6193 24.375H7.39773V30.3068H15.4261C16.8352 30.3068 18.0057 30.5 18.9375 30.8864C19.8693 31.2727 20.5625 31.8523 21.017 32.625C21.483 33.3977 21.7159 34.358 21.7159 35.5057C21.7159 36.6648 21.483 37.642 21.017 38.4375C20.5625 39.233 19.8636 39.8352 18.9205 40.2443C17.9886 40.6648 16.8125 40.875 15.392 40.875H10.4148V12H3.03409ZM21.8864 27.8864L30.5625 12H22.4148L13.9261 27.8864H21.8864Z" fill="white"/>
<path d="M55.6818 30.7159L49.0341 30.3068C48.9205 30.875 48.6761 31.3864 48.3011 31.8409C47.9261 32.3068 47.4318 32.6761 46.8182 32.9489C46.2159 33.233 45.4943 33.375 44.6534 33.375C43.5284 33.375 42.5795 33.1364 41.8068 32.6591C41.0341 32.1932 40.6477 31.5682 40.6477 30.7841C40.6477 30.1591 40.8977 29.6307 41.3977 29.1989C41.8977 28.767 42.7557 28.4205 43.9716 28.1591L48.7102 27.2045C51.2557 26.6818 53.1534 25.8409 54.4034 24.6818C55.6534 23.5227 56.2784 22 56.2784 20.1136C56.2784 18.3977 55.7727 16.892 54.7614 15.5966C53.7614 14.3011 52.3864 13.2898 50.6364 12.5625C48.8977 11.8466 46.892 11.4886 44.6193 11.4886C41.1534 11.4886 38.392 12.2102 36.3352 13.6534C34.2898 15.108 33.0909 17.0852 32.7386 19.5852L39.8807 19.9602C40.0966 18.9034 40.6193 18.0966 41.4489 17.5398C42.2784 16.9943 43.3409 16.7216 44.6364 16.7216C45.9091 16.7216 46.9318 16.9659 47.7045 17.4545C48.4886 17.9545 48.8864 18.5966 48.8977 19.3807C48.8864 20.0398 48.608 20.5795 48.0625 21C47.517 21.4318 46.6761 21.7614 45.5398 21.9886L41.0057 22.892C38.4489 23.4034 36.5455 24.2898 35.2955 25.5511C34.0568 26.8125 33.4375 28.4205 33.4375 30.375C33.4375 32.0568 33.892 33.5057 34.8011 34.7216C35.7216 35.9375 37.0114 36.875 38.6705 37.5341C40.3409 38.1932 42.2955 38.5227 44.5341 38.5227C47.8409 38.5227 50.4432 37.8239 52.3409 36.4261C54.25 35.0284 55.3636 33.125 55.6818 30.7159Z" fill="white"/>
</svg>
