<svg width="101" height="58" viewBox="0 0 101 58" fill="none" xmlns="http://www.w3.org/2000/svg">
<path d="M60.0341 11.0909H69.1364L78.75 34.5455H79.1591L88.7727 11.0909H97.875V46H90.7159V23.2784H90.4261L81.392 45.8295H76.517L67.483 23.1932H67.1932V46H60.0341V11.0909Z" fill="#CCCCCC"/>
<path d="M3.03409 46V11.0909H16.8068C19.4432 11.0909 21.6932 11.5625 23.5568 12.5057C25.4318 13.4375 26.858 14.7614 27.8352 16.4773C28.8239 18.1818 29.3182 20.1875 29.3182 22.4943C29.3182 24.8125 28.8182 26.8068 27.8182 28.4773C26.8182 30.1364 25.3693 31.4091 23.4716 32.2955C21.5852 33.1818 19.3011 33.625 16.6193 33.625H7.39773V27.6932H15.4261C16.8352 27.6932 18.0057 27.5 18.9375 27.1136C19.8693 26.7273 20.5625 26.1477 21.017 25.375C21.483 24.6023 21.7159 23.642 21.7159 22.4943C21.7159 21.3352 21.483 20.358 21.017 19.5625C20.5625 18.767 19.8636 18.1648 18.9205 17.7557C17.9886 17.3352 16.8125 17.125 15.392 17.125H10.4148V46H3.03409ZM21.8864 30.1136L30.5625 46H22.4148L13.9261 30.1136H21.8864Z" fill="#CCCCCC"/>
<path d="M55.6818 27.2841L49.0341 27.6932C48.9205 27.125 48.6761 26.6136 48.3011 26.1591C47.9261 25.6932 47.4318 25.3239 46.8182 25.0511C46.2159 24.767 45.4943 24.625 44.6534 24.625C43.5284 24.625 42.5795 24.8636 41.8068 25.3409C41.0341 25.8068 40.6477 26.4318 40.6477 27.2159C40.6477 27.8409 40.8977 28.3693 41.3977 28.8011C41.8977 29.233 42.7557 29.5795 43.9716 29.8409L48.7102 30.7955C51.2557 31.3182 53.1534 32.1591 54.4034 33.3182C55.6534 34.4773 56.2784 36 56.2784 37.8864C56.2784 39.6023 55.7727 41.108 54.7614 42.4034C53.7614 43.6989 52.3864 44.7102 50.6364 45.4375C48.8977 46.1534 46.892 46.5114 44.6193 46.5114C41.1534 46.5114 38.392 45.7898 36.3352 44.3466C34.2898 42.892 33.0909 40.9148 32.7386 38.4148L39.8807 38.0398C40.0966 39.0966 40.6193 39.9034 41.4489 40.4602C42.2784 41.0057 43.3409 41.2784 44.6364 41.2784C45.9091 41.2784 46.9318 41.0341 47.7045 40.5455C48.4886 40.0455 48.8864 39.4034 48.8977 38.6193C48.8864 37.9602 48.608 37.4205 48.0625 37C47.517 36.5682 46.6761 36.2386 45.5398 36.0114L41.0057 35.108C38.4489 34.5966 36.5455 33.7102 35.2955 32.4489C34.0568 31.1875 33.4375 29.5795 33.4375 27.625C33.4375 25.9432 33.892 24.4943 34.8011 23.2784C35.7216 22.0625 37.0114 21.125 38.6705 20.4659C40.3409 19.8068 42.2955 19.4773 44.5341 19.4773C47.8409 19.4773 50.4432 20.1761 52.3409 21.5739C54.25 22.9716 55.3636 24.875 55.6818 27.2841Z" fill="#CCCCCC"/>
</svg>
